<svg width="61" height="61" viewBox="0 0 61 61" fill="none" xmlns="http://www.w3.org/2000/svg">
<path d="M9.83333 30.25H4L30.25 4L56.5 30.25H50.6667M9.83333 30.25V50.6667C9.83333 52.2138 10.4479 53.6975 11.5419 54.7915C12.6358 55.8854 14.1196 56.5 15.6667 56.5H44.8333C46.3804 56.5 47.8642 55.8854 48.9581 54.7915C50.0521 53.6975 50.6667 52.2138 50.6667 50.6667V30.25" stroke="#00A81B" stroke-width="8" stroke-linecap="round" stroke-linejoin="round"/>
<path d="M21.5 56.5001V39.0001C21.5 37.453 22.1146 35.9693 23.2085 34.8753C24.3025 33.7813 25.7862 33.1667 27.3333 33.1667H33.1667C34.7138 33.1667 36.1975 33.7813 37.2915 34.8753C38.3854 35.9693 39 37.453 39 39.0001V56.5001" stroke="#00A81B" stroke-width="8" stroke-linecap="round" stroke-linejoin="round"/>
</svg>
